<?xml version="1.0" encoding="UTF-8" standalone="no"?>
<!-- Created with Inkscape (http://www.inkscape.org/) -->

<svg
   version="1.1"
   id="svg117048"
   width="255.27156"
   height="58.032055"
   viewBox="0 0 255.27156 58.032055"
   sodipodi:docname="ABRomics_logo.svg"
   inkscape:version="1.2 (1:1.2+202206011326+fc4e4096c5)"
   xmlns:inkscape="http://www.inkscape.org/namespaces/inkscape"
   xmlns:sodipodi="http://sodipodi.sourceforge.net/DTD/sodipodi-0.dtd"
   xmlns="http://www.w3.org/2000/svg"
   xmlns:svg="http://www.w3.org/2000/svg">
  <defs
     id="defs117052">
    <clipPath
       clipPathUnits="userSpaceOnUse"
       id="clipPath117086">
      <path
         d="m 177,14 h 14 v 20 h -14 z"
         id="path117084" />
    </clipPath>
    <clipPath
       clipPathUnits="userSpaceOnUse"
       id="clipPath117100">
      <path
         d="m 101,36 h 7 v 7 h -7 z"
         id="path117098" />
    </clipPath>
    <clipPath
       clipPathUnits="userSpaceOnUse"
       id="clipPath117110">
      <path
         d="m 108,36 h 6 v 7 h -6 z"
         id="path117108" />
    </clipPath>
    <clipPath
       clipPathUnits="userSpaceOnUse"
       id="clipPath117120">
      <path
         d="m 114,36 h 6 v 7 h -6 z"
         id="path117118" />
    </clipPath>
    <clipPath
       clipPathUnits="userSpaceOnUse"
       id="clipPath117130">
      <path
         d="m 120,36 h 2 v 7 h -2 z"
         id="path117128" />
    </clipPath>
    <clipPath
       clipPathUnits="userSpaceOnUse"
       id="clipPath117140">
      <path
         d="m 123,36 h 6 v 7 h -6 z"
         id="path117138" />
    </clipPath>
    <clipPath
       clipPathUnits="userSpaceOnUse"
       id="clipPath117150">
      <path
         d="m 129,36 h 2 v 7 h -2 z"
         id="path117148" />
    </clipPath>
    <clipPath
       clipPathUnits="userSpaceOnUse"
       id="clipPath117160">
      <path
         d="m 132,36 h 7 v 7 h -7 z"
         id="path117158" />
    </clipPath>
    <clipPath
       clipPathUnits="userSpaceOnUse"
       id="clipPath117170">
      <path
         d="m 139,36 h 6 v 7 h -6 z"
         id="path117168" />
    </clipPath>
    <clipPath
       clipPathUnits="userSpaceOnUse"
       id="clipPath117180">
      <path
         d="m 146,36 h 4 v 7 h -4 z"
         id="path117178" />
    </clipPath>
    <clipPath
       clipPathUnits="userSpaceOnUse"
       id="clipPath117190">
      <path
         d="m 150,36 h 6 v 7 h -6 z"
         id="path117188" />
    </clipPath>
    <clipPath
       clipPathUnits="userSpaceOnUse"
       id="clipPath117200">
      <path
         d="m 156,36 h 2 v 7 h -2 z"
         id="path117198" />
    </clipPath>
    <clipPath
       clipPathUnits="userSpaceOnUse"
       id="clipPath117210">
      <path
         d="m 159,36 h 5 v 7 h -5 z"
         id="path117208" />
    </clipPath>
    <clipPath
       clipPathUnits="userSpaceOnUse"
       id="clipPath117220">
      <path
         d="m 164,36 h 6 v 7 h -6 z"
         id="path117218" />
    </clipPath>
    <clipPath
       clipPathUnits="userSpaceOnUse"
       id="clipPath117230">
      <path
         d="m 168,36 h 7 v 7 h -7 z"
         id="path117228" />
    </clipPath>
    <clipPath
       clipPathUnits="userSpaceOnUse"
       id="clipPath117240">
      <path
         d="m 175,36 h 5 v 7 h -5 z"
         id="path117238" />
    </clipPath>
    <clipPath
       clipPathUnits="userSpaceOnUse"
       id="clipPath117250">
      <path
         d="m 181,36 h 6 v 7 h -6 z"
         id="path117248" />
    </clipPath>
    <clipPath
       clipPathUnits="userSpaceOnUse"
       id="clipPath117260">
      <path
         d="m 187,36 h 4 v 7 h -4 z"
         id="path117258" />
    </clipPath>
  </defs>
  <sodipodi:namedview
     id="namedview117050"
     pagecolor="#ffffff"
     bordercolor="#666666"
     borderopacity="1.0"
     inkscape:showpageshadow="2"
     inkscape:pageopacity="0.0"
     inkscape:pagecheckerboard="0"
     inkscape:deskcolor="#d1d1d1"
     showgrid="false"
     inkscape:zoom="6.6752442"
     inkscape:cx="100.74538"
     inkscape:cy="29.062607"
     inkscape:window-width="1846"
     inkscape:window-height="1043"
     inkscape:window-x="74"
     inkscape:window-y="0"
     inkscape:window-maximized="1"
     inkscape:current-layer="g117056">
    <inkscape:page
       x="0"
       y="0"
       id="page117054"
       width="255.27156"
       height="58.032055" />
  </sodipodi:namedview>
  <g
     id="g117056"
     inkscape:groupmode="layer"
     inkscape:label="Page 1"
     transform="matrix(1.3333333,0,0,1.3333333,0,1.7841347e-6)">
    <g
       id="g117058">
      <g
         id="g117060">
        <path
           d="m 49.777,10.824 h 3.375 l 9.45,21.899 h -4.426 l -2.024,-5.024 h -9.527 l -1.949,5.024 h -4.348 z m 4.95,13.574 -3.375,-8.925 -3.45,8.925 z"
           style="fill:#a1007d;fill-opacity:1;fill-rule:nonzero;stroke:#a1007d;stroke-width:1.5;stroke-linecap:butt;stroke-linejoin:miter;stroke-miterlimit:10;stroke-dasharray:none;stroke-opacity:1"
           id="path117062" />
      </g>
      <g
         id="g117064">
        <path
           d="m 65.035,10.828 8.59,-0.004 c 0.828,-0.004 1.652,0.074 2.477,0.297 0.824,0.227 1.5,0.527 2.175,0.977 0.676,0.449 1.125,1.05 1.5,1.726 0.375,0.672 0.598,1.574 0.598,2.547 0,1.277 -0.375,2.25 -1.047,3.078 -0.676,0.824 -1.652,1.348 -2.777,1.723 v 0.074 c 0.676,0.078 1.351,0.301 1.875,0.602 0.601,0.3 1.125,0.675 1.5,1.125 0.375,0.449 0.75,0.976 0.976,1.574 0.223,0.601 0.375,1.277 0.375,1.949 0,1.203 -0.226,2.176 -0.675,3 -0.45,0.828 -1.125,1.426 -1.875,1.953 -0.75,0.449 -1.649,0.824 -2.625,1.047 -0.977,0.227 -2.024,0.301 -3.075,0.301 H 65.152 L 65.035,10.938 Z m 3.942,8.918 H 72.5 c 1.277,0 2.25,-0.223 2.926,-0.75 0.676,-0.523 0.976,-1.199 0.976,-2.023 0,-0.977 -0.3,-1.649 -0.976,-2.102 -0.676,-0.449 -1.723,-0.672 -3.223,-0.672 h -3.226 z m 0,9.676 h 3.601 c 0.524,0 1.047,0 1.574,-0.074 0.598,-0.075 1.125,-0.227 1.575,-0.45 0.449,-0.226 0.898,-0.527 1.199,-0.976 0.301,-0.449 0.449,-0.973 0.449,-1.723 0,-1.125 -0.375,-1.953 -1.125,-2.402 -0.75,-0.449 -1.949,-0.676 -3.523,-0.676 h -3.75 z"
           style="fill:#a1007d;fill-opacity:1;fill-rule:nonzero;stroke:#a1007d;stroke-width:1.5;stroke-linecap:butt;stroke-linejoin:miter;stroke-miterlimit:10;stroke-dasharray:none;stroke-opacity:1"
           id="path117066" />
      </g>
      <g
         id="g117068">
        <path
           d="m 84.352,10.824 h 7.574 c 1.051,0 2.101,0.074 3.074,0.297 0.977,0.227 1.875,0.527 2.625,0.977 0.75,0.449 1.352,1.125 1.801,1.949 0.449,0.824 0.676,1.801 0.676,3.074 0,1.578 -0.45,2.926 -1.352,3.977 -0.898,1.05 -2.098,1.726 -3.75,1.949 l 5.852,9.676 h -4.727 l -5.098,-9.301 h -2.851 v 9.301 H 84.277 V 10.824 Z m 6.898,9.297 c 0.527,0 1.125,0 1.652,-0.074 0.524,-0.074 1.051,-0.149 1.5,-0.375 0.45,-0.223 0.825,-0.524 1.125,-0.899 0.301,-0.375 0.45,-0.976 0.45,-1.652 0,-0.672 -0.149,-1.125 -0.375,-1.574 -0.227,-0.449 -0.602,-0.676 -1.051,-0.899 -0.449,-0.226 -0.899,-0.3 -1.426,-0.375 -0.523,-0.074 -1.047,-0.074 -1.5,-0.074 H 88.25 v 5.922 z"
           style="fill:#a1007d;fill-opacity:1;fill-rule:nonzero;stroke:#a1007d;stroke-width:1.5;stroke-linecap:butt;stroke-linejoin:miter;stroke-miterlimit:10;stroke-dasharray:none;stroke-opacity:1"
           id="path117070" />
      </g>
      <path
         d="m 102.352,24.098 c 0,-1.274 0.226,-2.477 0.75,-3.602 0.449,-1.125 1.125,-2.098 2.023,-2.922 0.828,-0.828 1.875,-1.5 3,-2.027 1.125,-0.449 2.402,-0.75 3.676,-0.75 1.351,0 2.551,0.226 3.676,0.75 1.125,0.449 2.175,1.125 3,2.027 0.824,0.824 1.5,1.797 2.023,2.922 0.453,1.125 0.75,2.328 0.75,3.602 0,1.273 -0.223,2.476 -0.75,3.675 -0.449,1.125 -1.125,2.098 -2.023,2.926 -0.825,0.824 -1.875,1.5 -3,1.949 -1.125,0.45 -2.399,0.75 -3.676,0.75 -1.348,0 -2.551,-0.226 -3.676,-0.75 -1.125,-0.449 -2.172,-1.125 -3,-1.949 -0.824,-0.828 -1.5,-1.801 -2.023,-2.926 -0.524,-1.199 -0.75,-2.402 -0.75,-3.675 z m 3.601,0 c 0,0.898 0.149,1.726 0.375,2.476 0.297,0.75 0.672,1.422 1.125,1.949 0.524,0.524 1.125,0.973 1.797,1.274 0.75,0.301 1.5,0.449 2.402,0.449 0.899,0 1.723,-0.148 2.399,-0.449 0.75,-0.301 1.351,-0.75 1.801,-1.274 0.523,-0.527 0.898,-1.199 1.125,-1.949 0.3,-0.75 0.375,-1.578 0.375,-2.476 0,-0.899 -0.149,-1.727 -0.375,-2.477 -0.301,-0.75 -0.676,-1.422 -1.125,-1.949 -0.524,-0.524 -1.125,-0.973 -1.801,-1.274 -0.75,-0.3 -1.5,-0.449 -2.399,-0.449 -0.902,0 -1.726,0.149 -2.402,0.449 -0.75,0.301 -1.348,0.75 -1.797,1.274 -0.527,0.527 -0.902,1.199 -1.125,1.949 -0.226,0.75 -0.375,1.578 -0.375,2.477 z"
         style="fill:#53575a;fill-opacity:1;fill-rule:nonzero;stroke:none"
         id="path117072" />
      <path
         d="m 123.277,15.324 h 3.223 v 2.848 h 0.078 c 0.074,-0.223 0.297,-0.598 0.598,-0.973 0.301,-0.375 0.75,-0.75 1.199,-1.125 0.527,-0.375 1.051,-0.601 1.727,-0.902 0.675,-0.223 1.425,-0.375 2.25,-0.375 1.351,0 2.476,0.301 3.375,0.824 0.898,0.527 1.648,1.426 2.25,2.551 0.601,-1.125 1.425,-1.949 2.476,-2.551 1.047,-0.523 2.172,-0.824 3.223,-0.824 1.426,0 2.551,0.226 3.449,0.676 0.902,0.449 1.578,1.05 2.102,1.8 0.523,0.75 0.824,1.575 1.05,2.551 0.223,0.973 0.301,1.949 0.301,3 v 10.574 h -3.453 V 23.273 c 0,-0.675 -0.074,-1.351 -0.148,-2.027 -0.075,-0.598 -0.301,-1.199 -0.524,-1.648 -0.301,-0.45 -0.676,-0.899 -1.203,-1.2 -0.523,-0.3 -1.199,-0.449 -2.023,-0.449 -1.649,0 -2.852,0.524 -3.524,1.5 -0.75,1.047 -1.051,2.324 -1.051,3.973 v 9.902 h -3.449 v -9.453 c 0,-0.898 -0.078,-1.648 -0.152,-2.398 -0.074,-0.75 -0.301,-1.352 -0.524,-1.875 -0.3,-0.524 -0.675,-0.899 -1.125,-1.2 -0.527,-0.3 -1.199,-0.449 -2.027,-0.449 -0.598,0 -1.199,0.149 -1.797,0.375 -0.601,0.223 -1.051,0.598 -1.5,1.125 -0.453,0.449 -0.75,1.125 -1.051,1.875 -0.226,0.75 -0.375,1.649 -0.375,2.625 v 9.375 h -3.449 v -18 z"
         style="fill:#53575a;fill-opacity:1;fill-rule:nonzero;stroke:none"
         id="path117074" />
      <path
         d="m 153.578,14.797 h 3.523 v 18.602 h -3.523 z"
         style="fill:#53575a;fill-opacity:1;fill-rule:nonzero;stroke:none"
         id="path117076" />
      <path
         d="m 172.926,19.973 c -0.598,-0.676 -1.274,-1.125 -1.949,-1.5 -0.676,-0.301 -1.5,-0.524 -2.399,-0.524 -0.902,0 -1.726,0.149 -2.402,0.524 -0.676,0.3 -1.274,0.824 -1.723,1.351 -0.453,0.598 -0.828,1.274 -1.051,2.024 -0.226,0.75 -0.375,1.574 -0.375,2.324 0,0.824 0.149,1.574 0.375,2.324 0.301,0.75 0.676,1.352 1.125,1.875 0.524,0.527 1.125,0.977 1.801,1.277 0.672,0.301 1.5,0.45 2.324,0.45 0.973,0 1.723,-0.149 2.399,-0.524 0.676,-0.301 1.277,-0.828 1.875,-1.5 l 2.402,2.399 c -0.902,0.976 -1.875,1.648 -3,2.101 -1.125,0.449 -2.402,0.598 -3.676,0.598 -1.351,0 -2.625,-0.223 -3.75,-0.676 -1.125,-0.449 -2.101,-1.047 -2.925,-1.875 -0.825,-0.824 -1.426,-1.797 -1.875,-2.922 -0.45,-1.125 -0.676,-2.402 -0.676,-3.75 0,-1.351 0.226,-2.625 0.676,-3.75 0.449,-1.125 1.05,-2.101 1.875,-2.926 0.824,-0.824 1.8,-1.425 2.925,-1.875 1.125,-0.449 2.399,-0.675 3.75,-0.675 1.274,0 2.551,0.226 3.676,0.675 1.199,0.45 2.172,1.125 3.074,2.098 z"
         style="fill:#53575a;fill-opacity:1;fill-rule:nonzero;stroke:none"
         id="path117078" />
    </g>
    <g
       id="g117080">
      <g
         id="g117082"
         clip-path="url(#clipPath117086)">
        <path
           d="m 188,19.746 c -0.375,-0.523 -0.898,-0.898 -1.5,-1.273 -0.598,-0.301 -1.273,-0.524 -2.098,-0.524 -0.824,0 -1.5,0.149 -2.027,0.524 -0.523,0.375 -0.898,0.824 -0.898,1.5 0,0.523 0.148,0.976 0.523,1.273 0.301,0.301 0.75,0.602 1.203,0.75 0.449,0.227 0.973,0.375 1.5,0.453 0.524,0.074 0.973,0.149 1.348,0.223 0.75,0.152 1.426,0.375 2.027,0.601 0.598,0.223 1.199,0.598 1.649,0.973 0.449,0.375 0.824,0.902 1.05,1.426 0.223,0.601 0.375,1.277 0.375,2.101 0,0.973 -0.226,1.875 -0.601,2.551 -0.449,0.672 -0.973,1.274 -1.649,1.723 -0.675,0.449 -1.425,0.75 -2.25,0.976 -0.824,0.223 -1.726,0.301 -2.55,0.301 -1.426,0 -2.774,-0.226 -3.825,-0.676 -1.125,-0.449 -2.101,-1.277 -2.925,-2.476 l 2.55,-2.098 c 0.524,0.524 1.125,1.047 1.801,1.422 0.672,0.453 1.5,0.602 2.473,0.602 0.449,0 0.824,-0.075 1.277,-0.149 0.449,-0.078 0.824,-0.226 1.125,-0.375 0.297,-0.152 0.598,-0.453 0.824,-0.676 0.223,-0.226 0.301,-0.601 0.301,-0.976 0,-0.524 -0.152,-0.899 -0.453,-1.199 -0.297,-0.301 -0.672,-0.602 -1.125,-0.75 -0.449,-0.149 -0.898,-0.301 -1.348,-0.45 -0.449,-0.074 -0.902,-0.226 -1.277,-0.3 -0.75,-0.149 -1.422,-0.375 -2.023,-0.602 -0.676,-0.223 -1.2,-0.523 -1.727,-0.898 -0.523,-0.375 -0.898,-0.825 -1.199,-1.426 -0.301,-0.598 -0.449,-1.274 -0.449,-2.098 0,-0.902 0.226,-1.726 0.601,-2.402 0.375,-0.676 0.899,-1.274 1.5,-1.723 0.598,-0.453 1.348,-0.75 2.172,-0.976 0.828,-0.227 1.652,-0.301 2.402,-0.301 1.2,0 2.325,0.226 3.45,0.676 1.125,0.449 1.949,1.199 2.625,2.25 z"
           style="fill:#53575a;fill-opacity:1;fill-rule:nonzero;stroke:none"
           id="path117088" />
      </g>
    </g>
    <g
       id="g117090">
      <path
         d="m 153.578,11.574 c 0,-0.453 0.149,-0.902 0.524,-1.277 0.375,-0.375 0.75,-0.524 1.273,-0.524 0.453,0 0.902,0.149 1.277,0.524 0.375,0.375 0.524,0.75 0.524,1.277 0,0.449 -0.149,0.899 -0.524,1.274 -0.375,0.375 -0.75,0.523 -1.277,0.523 -0.449,0 -0.898,-0.148 -1.273,-0.523 -0.375,-0.375 -0.524,-0.825 -0.524,-1.274 z"
         style="fill:#53575a;fill-opacity:1;fill-rule:nonzero;stroke:none"
         id="path117092" />
    </g>
    <g
       id="g117094">
      <g
         id="g117096"
         clip-path="url(#clipPath117100)">
        <path
           d="m 106.102,41.723 h -2.625 l -0.524,1.574 h -0.976 l 2.175,-6.449 h 1.2 l 2.175,6.449 h -1.05 z m -0.301,-0.75 -1.051,-3.301 -1.047,3.301 z"
           style="fill:#a1007d;fill-opacity:1;fill-rule:nonzero;stroke:none"
           id="path117102" />
      </g>
    </g>
    <g
       id="g117104">
      <g
         id="g117106"
         clip-path="url(#clipPath117110)">
        <path
           d="m 113.453,43.371 h -1.277 l -2.774,-5.473 c 0.075,0.598 0.149,1.348 0.149,2.551 v 2.922 h -0.899 v -6.449 h 1.274 l 2.777,5.551 c -0.078,-0.227 -0.152,-1.274 -0.152,-2.176 v -3.375 h 0.902 z"
           style="fill:#a1007d;fill-opacity:1;fill-rule:nonzero;stroke:none"
           id="path117112" />
      </g>
    </g>
    <g
       id="g117114">
      <g
         id="g117116"
         clip-path="url(#clipPath117120)">
        <path
           d="M 119.375,37.672 H 117.5 v 5.625 h -0.973 v -5.625 h -1.949 v -0.824 h 4.875 z"
           style="fill:#a1007d;fill-opacity:1;fill-rule:nonzero;stroke:none"
           id="path117122" />
      </g>
    </g>
    <g
       id="g117124">
      <g
         id="g117126"
         clip-path="url(#clipPath117130)">
        <path
           d="m 120.578,36.922 h 0.973 v 6.449 h -0.973 z"
           style="fill:#a1007d;fill-opacity:1;fill-rule:nonzero;stroke:none"
           id="path117132" />
      </g>
    </g>
    <g
       id="g117134">
      <g
         id="g117136"
         clip-path="url(#clipPath117140)">
        <path
           d="m 128.375,41.496 c 0,1.352 -1.125,1.875 -2.699,1.875 h -1.949 v -6.449 h 1.648 c 1.652,0 2.703,0.527 2.703,1.652 0,0.824 -0.601,1.199 -1.203,1.348 0.676,0.152 1.5,0.527 1.5,1.574 z m -3.672,-3.898 v 1.949 h 1.047 c 0.75,0 1.352,-0.375 1.352,-1.051 0,-0.75 -0.602,-0.973 -1.575,-0.973 h -0.824 z m 2.625,3.898 c 0,-0.898 -0.676,-1.199 -1.5,-1.199 h -1.125 v 2.324 h 0.973 c 0.976,0 1.652,-0.223 1.652,-1.125 z"
           style="fill:#a1007d;fill-opacity:1;fill-rule:nonzero;stroke:none"
           id="path117142" />
      </g>
    </g>
    <g
       id="g117144">
      <g
         id="g117146"
         clip-path="url(#clipPath117150)">
        <path
           d="m 129.875,36.922 h 0.977 v 6.449 h -0.977 z"
           style="fill:#a1007d;fill-opacity:1;fill-rule:nonzero;stroke:none"
           id="path117152" />
      </g>
    </g>
    <g
       id="g117154">
      <g
         id="g117156"
         clip-path="url(#clipPath117160)">
        <path
           d="m 138.277,40.148 c 0,2.098 -1.125,3.375 -2.851,3.375 -1.723,0 -2.848,-1.199 -2.848,-3.375 0,-2.101 1.199,-3.375 2.848,-3.375 1.652,0 2.851,1.2 2.851,3.375 z m -4.8,0 c 0,1.801 0.75,2.551 1.875,2.551 1.125,0 1.875,-0.75 1.875,-2.551 0,-1.8 -0.676,-2.55 -1.875,-2.55 -1.125,-0.075 -1.875,0.75 -1.875,2.55 z"
           style="fill:#a1007d;fill-opacity:1;fill-rule:nonzero;stroke:none"
           id="path117162" />
      </g>
    </g>
    <g
       id="g117164">
      <g
         id="g117166"
         clip-path="url(#clipPath117170)">
        <path
           d="m 141.953,40.672 h -1.051 v 2.699 h -0.976 v -6.449 h 1.801 c 1.726,0 2.625,0.601 2.625,1.875 0,0.902 -0.524,1.426 -1.426,1.726 l 1.875,2.926 h -1.125 z m -0.152,-0.75 c 0.976,0 1.5,-0.301 1.5,-1.199 0,-0.75 -0.449,-1.125 -1.574,-1.125 h -0.825 v 2.324 z"
           style="fill:#a1007d;fill-opacity:1;fill-rule:nonzero;stroke:none"
           id="path117172" />
      </g>
    </g>
    <g
       id="g117174">
      <g
         id="g117176"
         clip-path="url(#clipPath117180)">
        <path
           d="m 149.602,37.672 h -2.625 v 2.027 h 2.324 v 0.75 h -2.324 v 2.172 h 2.851 v 0.75 h -3.75 v -6.449 h 3.75 z"
           style="fill:#a1007d;fill-opacity:1;fill-rule:nonzero;stroke:none"
           id="path117182" />
      </g>
    </g>
    <g
       id="g117184">
      <g
         id="g117186"
         clip-path="url(#clipPath117190)">
        <path
           d="m 155.152,37.523 -0.527,0.598 c -0.449,-0.375 -0.973,-0.598 -1.574,-0.598 -0.676,0 -1.199,0.301 -1.199,0.899 0,0.527 0.3,0.75 1.5,1.125 1.125,0.301 2.023,0.75 2.023,1.949 0,1.125 -0.898,1.953 -2.398,1.953 -0.977,0 -1.801,-0.301 -2.325,-0.828 l 0.524,-0.598 c 0.449,0.45 1.051,0.676 1.801,0.676 0.824,0 1.425,-0.375 1.425,-1.125 0,-0.601 -0.3,-0.902 -1.5,-1.203 -1.351,-0.375 -2.027,-0.898 -2.027,-1.875 0,-1.047 0.902,-1.723 2.176,-1.723 0.902,0 1.5,0.301 2.101,0.75 z"
           style="fill:#a1007d;fill-opacity:1;fill-rule:nonzero;stroke:none"
           id="path117192" />
      </g>
    </g>
    <g
       id="g117194">
      <g
         id="g117196"
         clip-path="url(#clipPath117200)">
        <path
           d="m 156.801,36.922 h 0.977 v 6.449 h -0.977 z"
           style="fill:#a1007d;fill-opacity:1;fill-rule:nonzero;stroke:none"
           id="path117202" />
      </g>
    </g>
    <g
       id="g117204">
      <g
         id="g117206"
         clip-path="url(#clipPath117210)">
        <path
           d="m 163.703,37.523 -0.527,0.598 c -0.449,-0.375 -0.973,-0.598 -1.574,-0.598 -0.676,0 -1.2,0.301 -1.2,0.899 0,0.527 0.301,0.75 1.5,1.125 1.125,0.301 2.024,0.75 2.024,1.949 0,1.125 -0.899,1.953 -2.399,1.953 -0.976,0 -1.8,-0.301 -2.324,-0.828 l 0.524,-0.598 c 0.449,0.45 1.05,0.676 1.8,0.676 0.825,0 1.426,-0.375 1.426,-1.125 0,-0.601 -0.301,-0.902 -1.5,-1.203 -1.351,-0.375 -2.027,-0.898 -2.027,-1.875 0,-1.047 0.902,-1.723 2.176,-1.723 0.898,0 1.5,0.301 2.101,0.75 z"
           style="fill:#a1007d;fill-opacity:1;fill-rule:nonzero;stroke:none"
           id="path117212" />
      </g>
    </g>
    <g
       id="g117214">
      <g
         id="g117216"
         clip-path="url(#clipPath117220)">
        <path
           d="m 169.027,37.672 h -1.875 v 5.625 h -0.976 v -5.625 h -1.949 v -0.824 h 4.875 z"
           style="fill:#a1007d;fill-opacity:1;fill-rule:nonzero;stroke:none"
           id="path117222" />
      </g>
    </g>
    <g
       id="g117224">
      <g
         id="g117226"
         clip-path="url(#clipPath117230)">
        <path
           d="M 172.551,41.723 H 170 l -0.523,1.574 H 168.5 l 2.176,-6.449 h 1.199 l 2.176,6.449 H 173 Z m -0.223,-0.75 -1.051,-3.301 -1.05,3.301 z"
           style="fill:#a1007d;fill-opacity:1;fill-rule:nonzero;stroke:none"
           id="path117232" />
      </g>
    </g>
    <g
       id="g117234">
      <g
         id="g117236"
         clip-path="url(#clipPath117240)">
        <path
           d="m 179.902,43.371 h -1.277 l -2.773,-5.473 c 0.074,0.598 0.148,1.348 0.148,2.551 v 2.922 h -0.898 v -6.449 h 1.273 l 2.777,5.551 C 179.078,42.246 179,41.199 179,40.297 v -3.375 h 0.902 z"
           style="fill:#a1007d;fill-opacity:1;fill-rule:nonzero;stroke:none"
           id="path117242" />
      </g>
    </g>
    <g
       id="g117244">
      <g
         id="g117246"
         clip-path="url(#clipPath117250)">
        <path
           d="m 186.277,37.449 -0.527,0.598 c -0.449,-0.301 -0.824,-0.449 -1.348,-0.449 -1.05,0 -1.875,0.675 -1.875,2.55 0,1.801 0.825,2.551 1.875,2.551 0.676,0 1.051,-0.301 1.426,-0.527 l 0.449,0.601 c -0.375,0.375 -1.05,0.75 -1.949,0.75 -1.652,0 -2.851,-1.199 -2.851,-3.375 0,-2.175 1.273,-3.3 2.851,-3.3 0.973,-0.075 1.422,0.148 1.949,0.601 z"
           style="fill:#a1007d;fill-opacity:1;fill-rule:nonzero;stroke:none"
           id="path117252" />
      </g>
    </g>
    <g
       id="g117254">
      <g
         id="g117256"
         clip-path="url(#clipPath117260)">
        <path
           d="m 191.227,37.672 h -2.625 v 2.027 h 2.324 v 0.75 h -2.324 v 2.172 h 2.851 v 0.75 h -3.75 v -6.449 h 3.75 z"
           style="fill:#a1007d;fill-opacity:1;fill-rule:nonzero;stroke:none"
           id="path117262" />
      </g>
    </g>
    <g
       id="g117264">
      <g
         id="g117266">
        <path
           d="M 17.301,35.047 2.977,17.199 C -0.547,12.848 0.203,6.398 4.551,2.949 8.902,-0.504 15.352,0.172 18.801,4.523 l 5.851,7.274 c 0.598,0.75 0.45,1.801 -0.226,2.402 -0.75,0.598 -1.801,0.449 -2.399,-0.226 L 16.176,6.699 C 13.852,3.773 9.578,3.324 6.652,5.648 3.727,7.973 3.277,12.246 5.602,15.172 l 14.324,17.851 c 2.324,2.926 6.601,3.375 9.527,1.051 2.922,-2.328 3.375,-6.601 1.047,-9.527 l -0.973,-1.274 c -2.851,-3.675 -2.25,-9.074 1.426,-12 0.75,-0.601 1.797,-0.449 2.399,0.223 0.601,0.75 0.449,1.801 -0.227,2.402 -2.25,1.801 -2.625,5.098 -0.824,7.348 l 0.902,1.125 c 3.524,4.352 2.774,10.801 -1.578,14.25 -4.348,3.453 -10.797,2.777 -14.324,-1.574 z"
           style="fill:#e577cb;fill-opacity:1;fill-rule:nonzero;stroke:#e577cb;stroke-width:1.5;stroke-linecap:butt;stroke-linejoin:miter;stroke-miterlimit:10;stroke-dasharray:none;stroke-opacity:1"
           id="path117268" />
      </g>
    </g>
  </g>
</svg>
